# xmcd
#
# Track frame offsets: 
#        187
#        18035
#        26317
#        42652
#        53965
#        78960
#        99205
#        117677
#        129432
#        151342
#
# Disc length: 2201 seconds
#
# Revision: 12
# Processed by: cddbd v1.5.2PL0 Copyright (c) Steve Scherf et al.
# Submitted via: ExactAudioCopy v1.1
#
DISCID=7208970a
DTITLE=Slayer - Divine Intervention [BVCP-774]
DYEAR=1994
DGENRE=Thrash Metal
TTITLE0=Killing Fields
TTITLE1=Sex. Murder. Art
TTITLE2=Fictional Reality
TTITLE3=Dittohead
TTITLE4=Divine Intervention
TTITLE5=Circle Of Beliefs
TTITLE6=SS-3
TTITLE7=Serenity In Murder
TTITLE8=213
TTITLE9=Mind Control
EXTD=YEAR: 1994
EXTT0=
EXTT1=
EXTT2=
EXTT3=
EXTT4=
EXTT5=
EXTT6=
EXTT7=
EXTT8=
EXTT9=
PLAYORDER=
